<svg xmlns="http://www.w3.org/2000/svg" xmlns:xlink="http://www.w3.org/1999/xlink" width="600.208" height="159.714" viewBox="0 0 600.208 159.714">
  <defs>
    <clipPath id="clip-path">
      <rect id="Rectangle_3" data-name="Rectangle 3" width="600.207" height="159.714" fill="none"/>
    </clipPath>
  </defs>
  <g id="Groupe_3" data-name="Groupe 3" transform="translate(0 0.001)">
    <path id="Tracé_1" data-name="Tracé 1" d="M0,514.634v5.183l36.135,27.065h.432V536.876L9.862,517.153l26.705-19.8V487.353Z" transform="translate(0 -441.7)" fill="#9c9c9b"/>
    <path id="Tracé_2" data-name="Tracé 2" d="M6016.827,487.352v10.006l26.633,19.8-26.633,19.723v10.005l36.567-27.065v-5.183L6017.4,487.352Z" transform="translate(-5453.186 -441.699)" fill="#9c9c9b"/>
    <rect id="Rectangle_1" data-name="Rectangle 1" width="9.142" height="157.059" transform="translate(200.459 2.655)" fill="#9c9c9b"/>
    <rect id="Rectangle_2" data-name="Rectangle 2" width="9.142" height="157.059" transform="translate(373.517 2.655)" fill="#9c9c9b"/>
    <path id="Tracé_3" data-name="Tracé 3" d="M721.555,133.336h-7.962L678.926,37.875v95.461H668.062V3.542h8.625l34,93.8V3.542h10.865Z" transform="translate(-605.479 -3.211)" fill="#2eaae0"/>
    <path id="Tracé_4" data-name="Tracé 4" d="M1503.066,133.336h-42.629V3.542h42.131v10.2h-30.6V62.177h27.866V72.546h-27.866v50.588h31.1Z" transform="translate(-1323.627 -3.211)" fill="#2eaae0"/>
    <path id="Tracé_5" data-name="Tracé 5" d="M2457.657,20.731l11.362,70.33h-22.807ZM2452.183,0l-23.139,129.795v.332h11.114l4.562-28.862h25.793l4.562,28.862h11.445L2463.545,0Z" transform="translate(-2201.498)" fill="#2eaae0"/>
    <g id="Groupe_2" data-name="Groupe 2" transform="translate(0 -0.001)">
      <g id="Groupe_1" data-name="Groupe 1" clip-path="url(#clip-path)">
        <path id="Tracé_6" data-name="Tracé 6" d="M3254.8,124.128a9.052,9.052,0,0,1-2.531,6.635,8.837,8.837,0,0,1-6.593,2.573H3213a9.119,9.119,0,0,1-6.677-2.573,8.9,8.9,0,0,1-2.612-6.635V91.2h11.528v31.929h28.032V92.2l-35.828-43.293a15.064,15.064,0,0,1-3.732-9.868V12.747a8.913,8.913,0,0,1,2.612-6.635A9.124,9.124,0,0,1,3213,3.541h32.677a8.842,8.842,0,0,1,6.593,2.571,9.062,9.062,0,0,1,2.531,6.635V42.936h-11.528V13.742h-28.032V41.111L3251.236,84.4a14.837,14.837,0,0,1,3.566,9.705Z" transform="translate(-2903.599 -3.209)" fill="#2eaae0"/>
        <path id="Tracé_7" data-name="Tracé 7" d="M4441.1,133.5h-1l-8.542-6.967q-1.493,6.8-8.459,6.8h-36.492a8.812,8.812,0,0,1-9.206-9.207V12.748a8.809,8.809,0,0,1,9.206-9.206H4423.1a8.848,8.848,0,0,1,6.594,2.571,9.068,9.068,0,0,1,2.529,6.635V115.009l8.874,7.129Zm-20.4-10.369v-5.058l-13.768-11.445V95.267h1.079l12.689,10.534V13.743H4388.93V123.134Z" transform="translate(-3967.338 -3.21)" fill="#2eaae0"/>
        <path id="Tracé_8" data-name="Tracé 8" d="M5245.683,124.128a8.83,8.83,0,0,1-2.654,6.635,9.261,9.261,0,0,1-6.718,2.573h-33.423a8.813,8.813,0,0,1-9.206-9.207V12.747a8.81,8.81,0,0,1,9.206-9.206h33.423a9.266,9.266,0,0,1,6.718,2.571,8.839,8.839,0,0,1,2.654,6.635V42.936h-11.611V13.742H5205.21V123.133h28.861V91.2h11.611Z" transform="translate(-4707.152 -3.209)" fill="#2eaae0"/>
      </g>
    </g>
  </g>
</svg>
